# xmcd
# 
# Track frame offsets:
#     150
#     18367
#     34896
#     48372
#     60260
#     74652
#     89185
#     109757
#     126116
#     140982
#     150758
#     165177
#     176039
#     191538
# 
# Disc length: 2824
# 
# Revision: 1
# Processed by: cddbd v1.5.2PL0 Copyright (c) Steve Scherf et al.
# Submitted via: fre:ac v1.0.17
# 
DISCID=bd0b060e
DTITLE=The Commitments - The Commitments
DYEAR=1991
DGENRE=Rock
TTITLE0=Mustang Sally
TTITLE1=Take Me to the River
TTITLE2=Chain of Fools
TTITLE3=The Dark End of the Street
TTITLE4=Destination Anywhere
TTITLE5=I Can't Stand the Rain
TTITLE6=Try a Little Tenderness
TTITLE7=Treat Her Right
TTITLE8=Do Right Woman Do Right Man
TTITLE9=Mr Pitiful
TTITLE10=I Never Loved a Man
TTITLE11=In the Midnight Hour
TTITLE12=Bye Bye Baby
TTITLE13=Slip Away
EXTD=
EXTT0=
EXTT1=
EXTT2=
EXTT3=
EXTT4=
EXTT5=
EXTT6=
EXTT7=
EXTT8=
EXTT9=
EXTT10=
EXTT11=
EXTT12=
EXTT13=
PLAYORDER=
